<?xml version="1.0" standalone="no"?>
 <!DOCTYPE svg PUBLIC "-//W3C//DTD SVG 1.1//EN" 
 "http://www.w3.org/Graphics/SVG/1.1/DTD/svg11.dtd"> 
<svg
  xmlns:svg="http://www.w3.org/2000/svg"
  xmlns="http://www.w3.org/2000/svg"
  xmlns:xlink="http://www.w3.org/1999/xlink"
  version="1.1"
  width="29.700220cm" height="21.000720cm" viewBox="0 0 297002200 210007200">
<title>SVG Picture created as polaris_iso_plate-Edge_Cuts.svg date 2020/06/25 20:03:31 </title>
  <desc>Picture generated by PCBNEW </desc>
<g style="fill:#000000; fill-opacity:1.000000;stroke:#000000; stroke-opacity:1.000000;
stroke-linecap:round; stroke-linejoin:round;"
 transform="translate(0 0) scale(1 1)">
</g>
<g style="fill:#000000; fill-opacity:0.0; 
stroke:#000000; stroke-width:0.000000; stroke-opacity:1; 
stroke-linecap:round; stroke-linejoin:round;">
</g>
<g style="fill:#000000; fill-opacity:0.0; 
stroke:#000000; stroke-width:50000.000000; stroke-opacity:1; 
stroke-linecap:round; stroke-linejoin:round;">
<path d="M214656750 113999546
L214656750 114499546
" />
<path d="M220038000 114500000
L214656750 114499546
" />
<path d="M220538000 128000000
L220538000 115000000
" />
<path d="M207038000 128490924
L220038000 128500000
" />
<path d="M206538000 115000000
L206538000 127990924
" />
<path d="M208156750 113499546
L214156750 113499546
" />
<path d="M207656750 113999546
L207656750 114499546
" />
<path d="M207038000 114500000
L207656750 114500000
" />
<path d="M208156750.000000 113499546.000000 A500000.000000 500000.000000 0.0 0 0 207656750.000000 113999546.000000" />
<path d="M214656750.000000 113999546.000000 A500000.000000 500000.000000 0.0 0 0 214156750.000000 113499546.000000" />
<path d="M220538000.000000 115000000.000000 A500000.000000 500000.000000 0.0 0 0 220038000.000000 114500000.000000" />
<path d="M220038000.000000 128500000.000000 A500000.000000 500000.000000 0.0 0 0 220538000.000000 128000000.000000" />
<path d="M206538000.000000 127990924.000000 A500000.000000 500000.000000 0.0 0 0 207038000.000000 128490924.000000" />
<path d="M207038000.000000 114500000.000000 A500000.000000 500000.000000 0.0 0 0 206538000.000000 115000000.000000" />
<path d="M188606750 127000000
L188606750 113999992
" />
<path d="M195106750 127500000
L189106750 127500000
" />
<path d="M195606750 114000000
L195606750 126999992
" />
<path d="M189106750 113499992
L195106750 113499992
" />
<path d="M188606750.000000 127000000.000000 A500000.000000 500000.000000 0.0 0 0 189106750.000000 127500000.000000" />
<path d="M195106750.000000 127500000.000000 A500000.000000 500000.000000 0.0 0 0 195606750.000000 127000000.000000" />
<path d="M195606750.000000 113999992.000000 A500000.000000 500000.000000 0.0 0 0 195106750.000000 113499992.000000" />
<path d="M189106750.000000 113499992.000000 A500000.000000 500000.000000 0.0 0 0 188606750.000000 113999992.000000" />
<path d="M160506750 128500000
L135600501 128499671
" />
<path d="M161006750 115000000
L161006750 128000000
" />
<path d="M135600500 114500000
L160506750 114500000
" />
<path d="M135100829 127999993
L135100500 115000000
" />
<path d="M135100829.000049 127999993.000000 A499671.000000 499671.000000 0.0 0 0 135600500.999947 128499670.999999" />
<path d="M160506750.000000 128500000.000000 A500000.000000 500000.000000 0.0 0 0 161006750.000000 128000000.000000" />
<path d="M161006750.000000 115000000.000000 A500000.000000 500000.000000 0.0 0 0 160506750.000000 114500000.000000" />
<path d="M135600828.000000 114499993.000000 A500000.000000 500000.000000 0.0 0 0 135100828.000000 114999993.000000" />
<path d="M88594250 114000000
L88594250 127000000
" />
<path d="M99856750 113500000
L89094250 113500000
" />
<path d="M100356750 127000000
L100356750 114000000
" />
<path d="M89094250 127500000
L99856750 127500000
" />
<path d="M88594250.000000 127000000.000000 A500000.000000 500000.000000 0.0 0 0 89094250.000000 127500000.000000" />
<path d="M99856750.000000 127500000.000000 A500000.000000 500000.000000 0.0 0 0 100356750.000000 127000000.000000" />
<path d="M100356750.000000 114000000.000000 A500000.000000 500000.000000 0.0 0 0 99856750.000000 113500000.000000" />
<path d="M89094250.000000 113500000.000000 A500000.000000 500000.000000 0.0 0 0 88594250.000000 114000000.000000" />
<path d="M275594250 115000000
L275594250 127990924
" />
<path d="M291975500 128000000
L291975500 115000000
" />
<path d="M291475500.000000 128500000.000000 A500000.000000 500000.000000 0.0 0 0 291975500.000000 128000000.000000" />
<path d="M291475500 114500000
L276094250 114500000
" />
<path d="M275594250.000000 127990924.000000 A500000.000000 500000.000000 0.0 0 0 276094250.000000 128490924.000000" />
<path d="M276094250.000000 114500000.000000 A500000.000000 500000.000000 0.0 0 0 275594250.000000 115000000.000000" />
<path d="M276094250 128490924
L291475500 128500000
" />
<path d="M291975500.000000 115000000.000000 A500000.000000 500000.000000 0.0 0 0 291475500.000000 114500000.000000" />
<path d="M251781750.000000 127990924.000000 A500000.000000 500000.000000 0.0 0 0 252281750.000000 128490924.000000" />
<path d="M268163000.000000 115000000.000000 A500000.000000 500000.000000 0.0 0 0 267663000.000000 114500000.000000" />
<path d="M268163000 128000000
L268163000 115000000
" />
<path d="M252281750 128490924
L267663000 128500000
" />
<path d="M251781750 115000000
L251781750 127990924
" />
<path d="M252281750.000000 114500000.000000 A500000.000000 500000.000000 0.0 0 0 251781750.000000 115000000.000000" />
<path d="M267663000 114500000
L252281750 114500000
" />
<path d="M267663000.000000 128500000.000000 A500000.000000 500000.000000 0.0 0 0 268163000.000000 128000000.000000" />
<path d="M227969250.000000 127990924.000000 A500000.000000 500000.000000 0.0 0 0 228469250.000000 128490924.000000" />
<path d="M243850500 114500000
L228469250 114500000
" />
<path d="M228469250.000000 114500000.000000 A500000.000000 500000.000000 0.0 0 0 227969250.000000 115000000.000000" />
<path d="M243850500.000000 128500000.000000 A500000.000000 500000.000000 0.0 0 0 244350500.000000 128000000.000000" />
<path d="M244350500.000000 115000000.000000 A500000.000000 500000.000000 0.0 0 0 243850500.000000 114500000.000000" />
<path d="M227969250 115000000
L227969250 127990924
" />
<path d="M228469250 128490924
L243850500 128500000
" />
<path d="M244350500 128000000
L244350500 115000000
" />
<path d="M63663000 115000000
L63663000 127990924
" />
<path d="M79544250 114500000
L64163000 114500000
" />
<path d="M80044250 128000000
L80044250 115000000
" />
<path d="M79544250.000000 128500000.000000 A500000.000000 500000.000000 0.0 0 0 80044250.000000 128000000.000000" />
<path d="M80044250.000000 115000000.000000 A500000.000000 500000.000000 0.0 0 0 79544250.000000 114500000.000000" />
<path d="M64163000.000000 114500000.000000 A500000.000000 500000.000000 0.0 0 0 63663000.000000 115000000.000000" />
<path d="M63663000.000000 127990924.000000 A500000.000000 500000.000000 0.0 0 0 64163000.000000 128490924.000000" />
<path d="M64163000 128490924
L79544250 128500000
" />
<path d="M55731750.000000 128500000.000000 A500000.000000 500000.000000 0.0 0 0 56231750.000000 128000000.000000" />
<path d="M56231750 128000000
L56231750 115000000
" />
<path d="M40350500.000000 114500000.000000 A500000.000000 500000.000000 0.0 0 0 39850500.000000 115000000.000000" />
<path d="M39850500.000000 127990924.000000 A500000.000000 500000.000000 0.0 0 0 40350500.000000 128490924.000000" />
<path d="M56231750.000000 115000000.000000 A500000.000000 500000.000000 0.0 0 0 55731750.000000 114500000.000000" />
<path d="M40350500 128490924
L55731750 128500000
" />
<path d="M55731750 114500000
L40350500 114500000
" />
<path d="M39850500 115000000
L39850500 127990924
" />
<path d="M32419250 128000000
L32419250 115000000
" />
<path d="M16538000 128490924
L31919250 128500000
" />
<path d="M16038000 115000000
L16038000 127990924
" />
<path d="M31919250 114500000
L16538000 114500000
" />
<path d="M32419250.000000 115000000.000000 A500000.000000 500000.000000 0.0 0 0 31919250.000000 114500000.000000" />
<path d="M31919250.000000 128500000.000000 A500000.000000 500000.000000 0.0 0 0 32419250.000000 128000000.000000" />
<path d="M16038000.000000 127990924.000000 A500000.000000 500000.000000 0.0 0 0 16538000.000000 128490924.000000" />
<path d="M16538000.000000 114500000.000000 A500000.000000 500000.000000 0.0 0 0 16038000.000000 115000000.000000" />
</g>
<g style="fill:#000000; fill-opacity:0.0; 
stroke:#000000; stroke-width:10000.000000; stroke-opacity:1; 
stroke-linecap:round; stroke-linejoin:round;">
<path d="M88056750 135499999
L37056750 135499999
" />
<path d="M88056750.000000 135499999.000000 A1000000.000000 1000000.000000 0.0 0 0 89056750.000000 134499999.000000" />
<path d="M89056750 133999999
L89056750 134499999
" />
<path d="M39556750.000000 34800000.000000 A2000000.000000 2000000.000000 0.0 0 0 41556750.000000 32800000.000000" />
<path d="M12156750 34800000
L39556750 34800000
" />
<path d="M12156750.000000 34800000.000000 A2000000.000000 2000000.000000 0.0 0 0 10156749.000000 36799999.000000" />
<path d="M10156749 130000000
L10156750 36800000
" />
<path d="M273956750.000000 132000000.000000 A1999999.000000 1999999.000000 0.0 0 0 271956751.000000 133999999.000000" />
<path d="M295856750 132000000
L273956750 132000000
" />
<path d="M295856750.000000 132000000.000000 A2000000.000000 2000000.000000 0.0 0 0 297856750.000000 130000000.000000" />
<path d="M297856750 36800000
L297856750 130000000
" />
<path d="M182506750.000000 132000000.000000 A1999999.000000 1999999.000000 0.0 0 0 180506751.000000 133999999.000000" />
<path d="M216956750 132000000
L182506750 132000000
" />
<path d="M218956750.000000 133999999.000000 A2000000.000000 2000000.000000 0.0 0 0 216956750.000000 131999999.000000" />
<path d="M218956750 134499999
L218956750 133999999
" />
<path d="M125506750.000000 34800000.000000 A2000000.000000 2000000.000000 0.0 0 0 127506750.000000 32800000.000000" />
<path d="M96556750 34800000
L125506750 34800000
" />
<path d="M94556750.000000 32800000.000000 A2000000.000000 2000000.000000 0.0 0 0 96556750.000000 34800000.000000" />
<path d="M94556750 32300000
L94556750 32800000
" />
<path d="M218956750.000000 134499999.000000 A1000000.000000 1000000.000000 0.0 0 0 219956750.000000 135499999.000000" />
<path d="M270956750 135499999
L219956750 135499999
" />
<path d="M270956750.000000 135499999.000000 A1000000.000000 1000000.000000 0.0 0 0 271956750.000000 134499999.000000" />
<path d="M271956750 133999999
L271956750 134499999
" />
<path d="M91056750.000000 132000000.000000 A1999999.000000 1999999.000000 0.0 0 0 89056751.000000 133999999.000000" />
<path d="M125506750 132000000
L91056750 132000000
" />
<path d="M127506750.000000 133999999.000000 A2000000.000000 2000000.000000 0.0 0 0 125506750.000000 131999999.000000" />
<path d="M127506750 134499999
L127506750 133999999
" />
<path d="M297856750.000000 36800000.000000 A2000000.000000 2000000.000000 0.0 0 0 295856750.000000 34800000.000000" />
<path d="M268456750 34800000
L295856750 34800000
" />
<path d="M266456750.000000 32800000.000000 A2000000.000000 2000000.000000 0.0 0 0 268456750.000000 34800000.000000" />
<path d="M266456750 32300000
L266456750 32800000
" />
<path d="M94556750.000000 32300000.000000 A1000000.000000 1000000.000000 0.0 0 0 93556750.000000 31300000.000000" />
<path d="M42556750 31300000
L93556750 31300000
" />
<path d="M42556750.000000 31300000.000000 A1000000.000000 1000000.000000 0.0 0 0 41556750.000000 32300000.000000" />
<path d="M41556750 32800000
L41556750 32300000
" />
<path d="M10156749.000000 130000000.000000 A2000000.000000 2000000.000000 0.0 0 0 12156749.000000 132000000.000000" />
<path d="M34056749 132000000
L12156749 132000000
" />
<path d="M36056749.000000 133999999.000000 A2000000.000000 2000000.000000 0.0 0 0 34056749.000000 131999999.000000" />
<path d="M36056750 134499999
L36056749 133999999
" />
<path d="M180506750.000000 32300000.000000 A1000001.000000 1000001.000000 0.0 0 0 179506749.000000 31299999.000000" />
<path d="M128506750 31300000
L179506750 31300000
" />
<path d="M128506750.000000 31300000.000000 A1000000.000000 1000000.000000 0.0 0 0 127506750.000000 32300000.000000" />
<path d="M127506750 32800000
L127506750 32300000
" />
<path d="M127506750.000000 134499999.000000 A999999.000000 999999.000000 0.0 0 0 128506749.000000 135499998.000000" />
<path d="M179506750 135499999
L128506750 135499999
" />
<path d="M179506750.000000 135499998.999999 A1000000.000000 1000000.000000 0.0 0 0 180506748.999999 134499998.000000" />
<path d="M180506750 133999999
L180506750 134499999
" />
<path d="M266456750.000000 32300000.000000 A1000000.000000 1000000.000000 0.0 0 0 265456750.000000 31300000.000000" />
<path d="M214456750 31300000
L265456750 31300000
" />
<path d="M214456750.000000 31300000.000000 A1000000.000000 1000000.000000 0.0 0 0 213456750.000000 32300000.000000" />
<path d="M213456750 32800000
L213456750 32300000
" />
<path d="M36056750.000000 134499999.000000 A1000000.000000 1000000.000000 0.0 0 0 37056750.000000 135499999.000000" />
<path d="M211456750.000000 34800000.000000 A2000000.000000 2000000.000000 0.0 0 0 213456750.000000 32800000.000000" />
<path d="M182506750 34800000
L211456750 34800000
" />
<path d="M180506750.000000 32800000.000000 A2000000.000000 2000000.000000 0.0 0 0 182506750.000000 34800000.000000" />
<path d="M180506750 32300000
L180506750 32800000
" />
</g>
<g style="fill:#000000; fill-opacity:0.0; 
stroke:#000000; stroke-width:50000.000000; stroke-opacity:1; 
stroke-linecap:round; stroke-linejoin:round;">
<path d="M16038000 89890925
L16038000 76900000
" />
<path d="M34300502 90400000
L16538001 90390924
" />
<path d="M34800500 76900000
L34800500 89899998
" />
<path d="M16538000 76400000
L34300498 76400000
" />
<path d="M34800499.999996 76899998.000000 A500000.000000 500000.000000 0.0 0 0 34300498.000000 76400000.000004" />
<path d="M34300502.000000 90399999.999996 A500000.000000 500000.000000 0.0 0 0 34800499.999996 89899998.000000" />
<path d="M16038000.000001 89890925.000000 A500000.000000 500000.000000 0.0 0 0 16538001.000000 90390923.999999" />
<path d="M16538000.000000 76400000.000000 A500000.000000 500000.000000 0.0 0 0 16038000.000000 76900000.000000" />
<path d="M293856750 38300000
L261806750 38300000
" />
<path d="M294356750.000000 38800000.000000 A500000.000000 500000.000000 0.0 0 0 293856750.000000 38300000.000000" />
<path d="M294356750 51800000
L294356750 38800000
" />
<path d="M293856750.000000 52300000.000000 A500000.000000 500000.000000 0.0 0 0 294356750.000000 51800000.000000" />
<path d="M293238000 52300008
L293856750 52300008
" />
<path d="M293238000 52800008
L293238000 52300008
" />
<path d="M292738000.000000 53300008.000000 A500000.000000 500000.000000 0.0 0 0 293238000.000000 52800008.000000" />
<path d="M286738000 53300008
L292738000 53300008
" />
<path d="M286238000.000000 52800008.000000 A500000.000000 500000.000000 0.0 0 0 286738000.000000 53300008.000000" />
<path d="M286238000 52300008
L286238000 52800008
" />
<path d="M269425500 52300000
L286238000 52300008
" />
<path d="M269425500 52800008
L269425500 52300000
" />
<path d="M268925500.000000 53300008.000000 A500000.000000 500000.000000 0.0 0 0 269425500.000000 52800008.000000" />
<path d="M262925500 53300008
L268925500 53300008
" />
<path d="M262425500.000000 52800008.000000 A500000.000000 500000.000000 0.0 0 0 262925500.000000 53300008.000000" />
<path d="M262425500 52290924
L262425500 52800008
" />
<path d="M261806750 52290924
L262425500 52290924
" />
<path d="M261306750.000000 51790924.000000 A500000.000000 500000.000000 0.0 0 0 261806750.000000 52290924.000000" />
<path d="M261306750 38800000
L261306750 51790924
" />
<path d="M261806750.000000 38300000.000000 A500000.000000 500000.000000 0.0 0 0 261306750.000000 38800000.000000" />
<path d="M255281750 109950008
L255281750 109440924
" />
<path d="M262281750 109950008
L262281750 109450008
" />
<path d="M255781750 110450008
L261781750 110450008
" />
<path d="M254663000 109440924
L255281750 109440924
" />
<path d="M277188000 109450000
L262281750 109450008
" />
<path d="M277687671 95950007
L277688000 108950000
" />
<path d="M254663000 95450000
L277187999 95450329
" />
<path d="M254163000 108940924
L254163000 95950000
" />
<path d="M279094251 109950001
L279094250 96950000
" />
<path d="M279594251 110450007
L285594250 110450008
" />
<path d="M286094250 109950008
L286094250 109450008
" />
<path d="M293856750 109450000
L286094250 109450008
" />
<path d="M294356750 95950000
L294356750 108950000
" />
<path d="M280856750 95450000
L293856750 95450000
" />
<path d="M280356750 95950000
L280356750 96450000
" />
<path d="M279594250 96450000
L280356750 96450000
" />
<path d="M285594250.000000 110450008.000000 A500000.000000 500000.000000 0.0 0 0 286094250.000000 109950008.000000" />
<path d="M279094251.000049 109950001.000000 A499999.000000 499999.000000 0.0 0 0 279594250.999962 110450006.999999" />
<path d="M279594250.000000 96450000.000000 A500000.000000 500000.000000 0.0 0 0 279094250.000000 96950000.000000" />
<path d="M280856750.000000 95450000.000000 A500000.000000 500000.000000 0.0 0 0 280356750.000000 95950000.000000" />
<path d="M293856750.000000 109450000.000000 A500000.000000 500000.000000 0.0 0 0 294356750.000000 108950000.000000" />
<path d="M294356750.000000 95950000.000000 A500000.000000 500000.000000 0.0 0 0 293856750.000000 95450000.000000" />
<path d="M277687670.999951 95950007.000000 A499671.000000 499671.000000 0.0 0 0 277187999.000053 95450329.000001" />
<path d="M277188000.000000 109450000.000000 A500000.000000 500000.000000 0.0 0 0 277688000.000000 108950000.000000" />
<path d="M261781750.000000 110450008.000000 A500000.000000 500000.000000 0.0 0 0 262281750.000000 109950008.000000" />
<path d="M255281750.000000 109950008.000000 A500000.000000 500000.000000 0.0 0 0 255781750.000000 110450008.000000" />
<path d="M254163000.000000 108940924.000000 A500000.000000 500000.000000 0.0 0 0 254663000.000000 109440924.000000" />
<path d="M254663000.000000 95450000.000000 A500000.000000 500000.000000 0.0 0 0 254163000.000000 95950000.000000" />
</g>
<g style="fill:#000000; fill-opacity:0.0; 
stroke:#000000; stroke-width:10007.000000; stroke-opacity:1; 
stroke-linecap:round; stroke-linejoin:round;">
<path d="M270044250.000000 90400000.000000 A500000.000000 500000.000000 0.0 0 0 270544250.000000 89900000.000000" />
<path d="M256544250 76900000
L256544250 89890924
" />
<path d="M270544250.000000 76900000.000000 A500000.000000 500000.000000 0.0 0 0 270044250.000000 76400000.000000" />
<path d="M257044250.000000 76400000.000000 A500000.000000 500000.000000 0.0 0 0 256544250.000000 76900000.000000" />
<path d="M257044250 90390924
L270044250 90400000
" />
<path d="M256544250.000000 89890924.000000 A500000.000000 500000.000000 0.0 0 0 257044250.000000 90390924.000000" />
<path d="M257044250 76400000
L270044250 76400000
" />
<path d="M270544250 76900000
L270544250 89900000
" />
<path d="M291475492 80874672
L278475493 80874672
" />
<path d="M276975492.000000 64968750.000000 A500000.000000 500000.000000 0.0 0 0 277475492.000000 65468750.000000" />
<path d="M277475492.000000 58468750.000000 A500000.000000 500000.000000 0.0 0 0 276975492.000000 58968750.000000" />
<path d="M290475500.000000 65468750.000000 A500000.000000 500000.000000 0.0 0 0 290975500.000000 64968750.000000" />
<path d="M290975500.000000 58968750.000000 A500000.000000 500000.000000 0.0 0 0 290475500.000000 58468750.000000" />
<path d="M277475492.000000 82281250.000000 A500000.000000 500000.000000 0.0 0 0 276975492.000000 82781250.000000" />
<path d="M290475500.000000 89281250.000000 A500000.000000 500000.000000 0.0 0 0 290975500.000000 88781250.000000" />
<path d="M290975500.000000 82781250.000000 A500000.000000 500000.000000 0.0 0 0 290475500.000000 82281250.000000" />
<path d="M290475492 89281250
L277475492 89281250
" />
<path d="M290475492 82281250
L277475500 82281250
" />
<path d="M290475492 65468750
L277475500 65468750
" />
<path d="M290475492 58468750
L277475492 58468750
" />
<path d="M276975492 58968750
L276975492 64968750
" />
<path d="M290975500 58968750
L290975492 64968750
" />
<path d="M276975492.000000 88781250.000000 A500000.000000 500000.000000 0.0 0 0 277475492.000000 89281250.000000" />
<path d="M276975492 82781250
L276975492 88781250
" />
<path d="M290975492 82781250
L290975492 88781250
" />
<path d="M277975493.000000 80374672.000000 A500000.000000 500000.000000 0.0 0 0 278475493.000000 80874672.000000" />
<path d="M291975500 67375000
L291975500 80375000
" />
<path d="M278475500.000000 66875000.000000 A500000.000000 500000.000000 0.0 0 0 277975500.000000 67375000.000000" />
<path d="M277975500 67375000
L277975500 80375000
" />
<path d="M291975500.000000 67375000.000000 A500000.000000 500000.000000 0.0 0 0 291475500.000000 66875000.000000" />
<path d="M291475500.000000 80875000.000000 A500000.000000 500000.000000 0.0 0 0 291975500.000000 80375000.000000" />
<path d="M291475500 66875000
L278475500 66875000
" />
<path d="M51469250 95950000
L51469250 108950000
" />
<path d="M37969250 95450000
L50969250 95450000
" />
<path d="M37469250.000000 108940924.000000 A500000.000000 500000.000000 0.0 0 0 37969250.000000 109440924.000000" />
<path d="M37969250 109440924
L50969250 109450000
" />
<path d="M37969250.000000 95450000.000000 A500000.000000 500000.000000 0.0 0 0 37469250.000000 95950000.000000" />
<path d="M51469250.000000 95950000.000000 A500000.000000 500000.000000 0.0 0 0 50969250.000000 95450000.000000" />
<path d="M37469250 95950000
L37469250 108940924
" />
<path d="M50969250.000000 109450000.000000 A500000.000000 500000.000000 0.0 0 0 51469250.000000 108950000.000000" />
<path d="M30038000 95950000
L30038000 108950000
" />
<path d="M16538000 95450000
L29538000 95450000
" />
<path d="M16038000.000000 108940924.000000 A500000.000000 500000.000000 0.0 0 0 16538000.000000 109440924.000000" />
<path d="M16538000 109440924
L29538000 109450000
" />
<path d="M16538000.000000 95450000.000000 A500000.000000 500000.000000 0.0 0 0 16038000.000000 95950000.000000" />
<path d="M30038000.000000 95950000.000000 A500000.000000 500000.000000 0.0 0 0 29538000.000000 95450000.000000" />
<path d="M16038000 95950000
L16038000 108940924
" />
<path d="M29538000.000000 109450000.000000 A500000.000000 500000.000000 0.0 0 0 30038000.000000 108950000.000000" />
<path d="M241469250.000000 109450000.000000 A500000.000000 500000.000000 0.0 0 0 241969250.000000 108950000.000000" />
<path d="M227969250 95950000
L227969250 108940924
" />
<path d="M241969250.000000 95950000.000000 A500000.000000 500000.000000 0.0 0 0 241469250.000000 95450000.000000" />
<path d="M228469250.000000 95450000.000000 A500000.000000 500000.000000 0.0 0 0 227969250.000000 95950000.000000" />
<path d="M228469250 109440924
L241469250 109450000
" />
<path d="M227969250.000000 108940924.000000 A500000.000000 500000.000000 0.0 0 0 228469250.000000 109440924.000000" />
<path d="M228469250 95450000
L241469250 95450000
" />
<path d="M241969250 95950000
L241969250 108950000
" />
<path d="M222919250 95950000
L222919250 108950000
" />
<path d="M209419250 95450000
L222419250 95450000
" />
<path d="M208919250.000000 108940924.000000 A500000.000000 500000.000000 0.0 0 0 209419250.000000 109440924.000000" />
<path d="M209419250 109440924
L222419250 109450000
" />
<path d="M209419250.000000 95450000.000000 A500000.000000 500000.000000 0.0 0 0 208919250.000000 95950000.000000" />
<path d="M222919250.000000 95950000.000000 A500000.000000 500000.000000 0.0 0 0 222419250.000000 95450000.000000" />
<path d="M208919250 95950000
L208919250 108940924
" />
<path d="M222419250.000000 109450000.000000 A500000.000000 500000.000000 0.0 0 0 222919250.000000 108950000.000000" />
<path d="M203869250 95950000
L203869250 108950000
" />
<path d="M190369250 95450000
L203369250 95450000
" />
<path d="M189869250.000000 108940924.000000 A500000.000000 500000.000000 0.0 0 0 190369250.000000 109440924.000000" />
<path d="M190369250 109440924
L203369250 109450000
" />
<path d="M190369250.000000 95450000.000000 A500000.000000 500000.000000 0.0 0 0 189869250.000000 95950000.000000" />
<path d="M203869250.000000 95950000.000000 A500000.000000 500000.000000 0.0 0 0 203369250.000000 95450000.000000" />
<path d="M189869250 95950000
L189869250 108940924
" />
<path d="M203369250.000000 109450000.000000 A500000.000000 500000.000000 0.0 0 0 203869250.000000 108950000.000000" />
<path d="M127169250.000000 109450000.000000 A500000.000000 500000.000000 0.0 0 0 127669250.000000 108950000.000000" />
<path d="M113669250 95950000
L113669250 108940924
" />
<path d="M127669250.000000 95950000.000000 A500000.000000 500000.000000 0.0 0 0 127169250.000000 95450000.000000" />
<path d="M114169250.000000 95450000.000000 A500000.000000 500000.000000 0.0 0 0 113669250.000000 95950000.000000" />
<path d="M114169250 109440924
L127169250 109450000
" />
<path d="M113669250.000000 108940924.000000 A500000.000000 500000.000000 0.0 0 0 114169250.000000 109440924.000000" />
<path d="M114169250 95450000
L127169250 95450000
" />
<path d="M127669250 95950000
L127669250 108950000
" />
<path d="M89569250 95950000
L89569250 108950000
" />
<path d="M76069250 95450000
L89069250 95450000
" />
<path d="M75569250.000000 108940924.000000 A500000.000000 500000.000000 0.0 0 0 76069250.000000 109440924.000000" />
<path d="M76069250 109440924
L89069250 109450000
" />
<path d="M76069250.000000 95450000.000000 A500000.000000 500000.000000 0.0 0 0 75569250.000000 95950000.000000" />
<path d="M89569250.000000 95950000.000000 A500000.000000 500000.000000 0.0 0 0 89069250.000000 95450000.000000" />
<path d="M75569250 95950000
L75569250 108940924
" />
<path d="M89069250.000000 109450000.000000 A500000.000000 500000.000000 0.0 0 0 89569250.000000 108950000.000000" />
<path d="M146719250 95950000
L146719250 108950000
" />
<path d="M133219250 95450000
L146219250 95450000
" />
<path d="M132719250.000000 108940924.000000 A500000.000000 500000.000000 0.0 0 0 133219250.000000 109440924.000000" />
<path d="M133219250 109440924
L146219250 109450000
" />
<path d="M133219250.000000 95450000.000000 A500000.000000 500000.000000 0.0 0 0 132719250.000000 95950000.000000" />
<path d="M146719250.000000 95950000.000000 A500000.000000 500000.000000 0.0 0 0 146219250.000000 95450000.000000" />
<path d="M132719250 95950000
L132719250 108940924
" />
<path d="M146219250.000000 109450000.000000 A500000.000000 500000.000000 0.0 0 0 146719250.000000 108950000.000000" />
<path d="M184819250 95950000
L184819250 108950000
" />
<path d="M171319250 95450000
L184319250 95450000
" />
<path d="M170819250.000000 108940924.000000 A500000.000000 500000.000000 0.0 0 0 171319250.000000 109440924.000000" />
<path d="M171319250 109440924
L184319250 109450000
" />
<path d="M171319250.000000 95450000.000000 A500000.000000 500000.000000 0.0 0 0 170819250.000000 95950000.000000" />
<path d="M184819250.000000 95950000.000000 A500000.000000 500000.000000 0.0 0 0 184319250.000000 95450000.000000" />
<path d="M170819250 95950000
L170819250 108940924
" />
<path d="M184319250.000000 109450000.000000 A500000.000000 500000.000000 0.0 0 0 184819250.000000 108950000.000000" />
<path d="M165269250.000000 109450000.000000 A500000.000000 500000.000000 0.0 0 0 165769250.000000 108950000.000000" />
<path d="M151769250 95950000
L151769250 108940924
" />
<path d="M165769250.000000 95950000.000000 A500000.000000 500000.000000 0.0 0 0 165269250.000000 95450000.000000" />
<path d="M152269250.000000 95450000.000000 A500000.000000 500000.000000 0.0 0 0 151769250.000000 95950000.000000" />
<path d="M152269250 109440924
L165269250 109450000
" />
<path d="M151769250.000000 108940924.000000 A500000.000000 500000.000000 0.0 0 0 152269250.000000 109440924.000000" />
<path d="M152269250 95450000
L165269250 95450000
" />
<path d="M165769250 95950000
L165769250 108950000
" />
<path d="M108119250.000000 109450000.000000 A500000.000000 500000.000000 0.0 0 0 108619250.000000 108950000.000000" />
<path d="M94619250 95950000
L94619250 108940924
" />
<path d="M108619250.000000 95950000.000000 A500000.000000 500000.000000 0.0 0 0 108119250.000000 95450000.000000" />
<path d="M95119250.000000 95450000.000000 A500000.000000 500000.000000 0.0 0 0 94619250.000000 95950000.000000" />
<path d="M95119250 109440924
L108119250 109450000
" />
<path d="M94619250.000000 108940924.000000 A500000.000000 500000.000000 0.0 0 0 95119250.000000 109440924.000000" />
<path d="M95119250 95450000
L108119250 95450000
" />
<path d="M108619250 95950000
L108619250 108950000
" />
<path d="M70019250.000000 109450000.000000 A500000.000000 500000.000000 0.0 0 0 70519250.000000 108950000.000000" />
<path d="M56519250 95950000
L56519250 108940924
" />
<path d="M70519250.000000 95950000.000000 A500000.000000 500000.000000 0.0 0 0 70019250.000000 95450000.000000" />
<path d="M57019250.000000 95450000.000000 A500000.000000 500000.000000 0.0 0 0 56519250.000000 95950000.000000" />
<path d="M57019250 109440924
L70019250 109450000
" />
<path d="M56519250.000000 108940924.000000 A500000.000000 500000.000000 0.0 0 0 57019250.000000 109440924.000000" />
<path d="M57019250 95450000
L70019250 95450000
" />
<path d="M70519250 95950000
L70519250 108950000
" />
<path d="M156244250 76900000
L156244250 89900000
" />
<path d="M142744250 76400000
L155744250 76400000
" />
<path d="M142244250.000000 89890924.000000 A500000.000000 500000.000000 0.0 0 0 142744250.000000 90390924.000000" />
<path d="M142744250 90390924
L155744250 90400000
" />
<path d="M142744250.000000 76400000.000000 A500000.000000 500000.000000 0.0 0 0 142244250.000000 76900000.000000" />
<path d="M156244250.000000 76900000.000000 A500000.000000 500000.000000 0.0 0 0 155744250.000000 76400000.000000" />
<path d="M142244250 76900000
L142244250 89890924
" />
<path d="M155744250.000000 90400000.000000 A500000.000000 500000.000000 0.0 0 0 156244250.000000 89900000.000000" />
<path d="M79544250.000000 90400000.000000 A500000.000000 500000.000000 0.0 0 0 80044250.000000 89900000.000000" />
<path d="M66044250 76900000
L66044250 89890924
" />
<path d="M80044250.000000 76900000.000000 A500000.000000 500000.000000 0.0 0 0 79544250.000000 76400000.000000" />
<path d="M66544250.000000 76400000.000000 A500000.000000 500000.000000 0.0 0 0 66044250.000000 76900000.000000" />
<path d="M66544250 90390924
L79544250 90400000
" />
<path d="M66044250.000000 89890924.000000 A500000.000000 500000.000000 0.0 0 0 66544250.000000 90390924.000000" />
<path d="M66544250 76400000
L79544250 76400000
" />
<path d="M80044250 76900000
L80044250 89900000
" />
<path d="M60994250 76900000
L60994250 89900000
" />
<path d="M47494250 76400000
L60494250 76400000
" />
<path d="M46994250.000000 89890924.000000 A500000.000000 500000.000000 0.0 0 0 47494250.000000 90390924.000000" />
<path d="M47494250 90390924
L60494250 90400000
" />
<path d="M47494250.000000 76400000.000000 A500000.000000 500000.000000 0.0 0 0 46994250.000000 76900000.000000" />
<path d="M60994250.000000 76900000.000000 A500000.000000 500000.000000 0.0 0 0 60494250.000000 76400000.000000" />
<path d="M46994250 76900000
L46994250 89890924
" />
<path d="M60494250.000000 90400000.000000 A500000.000000 500000.000000 0.0 0 0 60994250.000000 89900000.000000" />
<path d="M136694250.000000 90400000.000000 A500000.000000 500000.000000 0.0 0 0 137194250.000000 89900000.000000" />
<path d="M123194250 76900000
L123194250 89890924
" />
<path d="M137194250.000000 76900000.000000 A500000.000000 500000.000000 0.0 0 0 136694250.000000 76400000.000000" />
<path d="M123694250.000000 76400000.000000 A500000.000000 500000.000000 0.0 0 0 123194250.000000 76900000.000000" />
<path d="M123694250 90390924
L136694250 90400000
" />
<path d="M123194250.000000 89890924.000000 A500000.000000 500000.000000 0.0 0 0 123694250.000000 90390924.000000" />
<path d="M123694250 76400000
L136694250 76400000
" />
<path d="M137194250 76900000
L137194250 89900000
" />
<path d="M118144250 76900000
L118144250 89900000
" />
<path d="M104644250 76400000
L117644250 76400000
" />
<path d="M104144250.000000 89890924.000000 A500000.000000 500000.000000 0.0 0 0 104644250.000000 90390924.000000" />
<path d="M104644250 90390924
L117644250 90400000
" />
<path d="M104644250.000000 76400000.000000 A500000.000000 500000.000000 0.0 0 0 104144250.000000 76900000.000000" />
<path d="M118144250.000000 76900000.000000 A500000.000000 500000.000000 0.0 0 0 117644250.000000 76400000.000000" />
<path d="M104144250 76900000
L104144250 89890924
" />
<path d="M117644250.000000 90400000.000000 A500000.000000 500000.000000 0.0 0 0 118144250.000000 89900000.000000" />
<path d="M99094250 76900000
L99094250 89900000
" />
<path d="M85594250 76400000
L98594250 76400000
" />
<path d="M85094250.000000 89890924.000000 A500000.000000 500000.000000 0.0 0 0 85594250.000000 90390924.000000" />
<path d="M85594250 90390924
L98594250 90400000
" />
<path d="M85594250.000000 76400000.000000 A500000.000000 500000.000000 0.0 0 0 85094250.000000 76900000.000000" />
<path d="M99094250.000000 76900000.000000 A500000.000000 500000.000000 0.0 0 0 98594250.000000 76400000.000000" />
<path d="M85094250 76900000
L85094250 89890924
" />
<path d="M98594250.000000 90400000.000000 A500000.000000 500000.000000 0.0 0 0 99094250.000000 89900000.000000" />
<path d="M231944250.000000 90400000.000000 A500000.000000 500000.000000 0.0 0 0 232444250.000000 89900000.000000" />
<path d="M218444250 76900000
L218444250 89890924
" />
<path d="M232444250.000000 76900000.000000 A500000.000000 500000.000000 0.0 0 0 231944250.000000 76400000.000000" />
<path d="M218944250.000000 76400000.000000 A500000.000000 500000.000000 0.0 0 0 218444250.000000 76900000.000000" />
<path d="M218944250 90390924
L231944250 90400000
" />
<path d="M218444250.000000 89890924.000000 A500000.000000 500000.000000 0.0 0 0 218944250.000000 90390924.000000" />
<path d="M218944250 76400000
L231944250 76400000
" />
<path d="M232444250 76900000
L232444250 89900000
" />
<path d="M194344250 76900000
L194344250 89900000
" />
<path d="M180844250 76400000
L193844250 76400000
" />
<path d="M180344250.000000 89890924.000000 A500000.000000 500000.000000 0.0 0 0 180844250.000000 90390924.000000" />
<path d="M180844250 90390924
L193844250 90400000
" />
<path d="M180844250.000000 76400000.000000 A500000.000000 500000.000000 0.0 0 0 180344250.000000 76900000.000000" />
<path d="M194344250.000000 76900000.000000 A500000.000000 500000.000000 0.0 0 0 193844250.000000 76400000.000000" />
<path d="M180344250 76900000
L180344250 89890924
" />
<path d="M193844250.000000 90400000.000000 A500000.000000 500000.000000 0.0 0 0 194344250.000000 89900000.000000" />
<path d="M251494250 76900000
L251494250 89900000
" />
<path d="M237994250 76400000
L250994250 76400000
" />
<path d="M237494250.000000 89890924.000000 A500000.000000 500000.000000 0.0 0 0 237994250.000000 90390924.000000" />
<path d="M237994250 90390924
L250994250 90400000
" />
<path d="M237994250.000000 76400000.000000 A500000.000000 500000.000000 0.0 0 0 237494250.000000 76900000.000000" />
<path d="M251494250.000000 76900000.000000 A500000.000000 500000.000000 0.0 0 0 250994250.000000 76400000.000000" />
<path d="M237494250 76900000
L237494250 89890924
" />
<path d="M250994250.000000 90400000.000000 A500000.000000 500000.000000 0.0 0 0 251494250.000000 89900000.000000" />
<path d="M212894250.000000 90400000.000000 A500000.000000 500000.000000 0.0 0 0 213394250.000000 89900000.000000" />
<path d="M199394250 76900000
L199394250 89890924
" />
<path d="M213394250.000000 76900000.000000 A500000.000000 500000.000000 0.0 0 0 212894250.000000 76400000.000000" />
<path d="M199894250.000000 76400000.000000 A500000.000000 500000.000000 0.0 0 0 199394250.000000 76900000.000000" />
<path d="M199894250 90390924
L212894250 90400000
" />
<path d="M199394250.000000 89890924.000000 A500000.000000 500000.000000 0.0 0 0 199894250.000000 90390924.000000" />
<path d="M199894250 76400000
L212894250 76400000
" />
<path d="M213394250 76900000
L213394250 89900000
" />
<path d="M174794250.000000 90400000.000000 A500000.000000 500000.000000 0.0 0 0 175294250.000000 89900000.000000" />
<path d="M161294250 76900000
L161294250 89890924
" />
<path d="M175294250.000000 76900000.000000 A500000.000000 500000.000000 0.0 0 0 174794250.000000 76400000.000000" />
<path d="M161794250.000000 76400000.000000 A500000.000000 500000.000000 0.0 0 0 161294250.000000 76900000.000000" />
<path d="M161794250 90390924
L174794250 90400000
" />
<path d="M161294250.000000 89890924.000000 A500000.000000 500000.000000 0.0 0 0 161794250.000000 90390924.000000" />
<path d="M161794250 76400000
L174794250 76400000
" />
<path d="M175294250 76900000
L175294250 89900000
" />
<path d="M265281750.000000 71350000.000000 A500000.000000 500000.000000 0.0 0 0 265781750.000000 70850000.000000" />
<path d="M251781750 57850000
L251781750 70840924
" />
<path d="M265781750.000000 57850000.000000 A500000.000000 500000.000000 0.0 0 0 265281750.000000 57350000.000000" />
<path d="M252281750.000000 57350000.000000 A500000.000000 500000.000000 0.0 0 0 251781750.000000 57850000.000000" />
<path d="M252281750 71340924
L265281750 71350000
" />
<path d="M251781750.000000 70840924.000000 A500000.000000 500000.000000 0.0 0 0 252281750.000000 71340924.000000" />
<path d="M252281750 57350000
L265281750 57350000
" />
<path d="M265781750 57850000
L265781750 70850000
" />
<path d="M112881750.000000 71350000.000000 A500000.000000 500000.000000 0.0 0 0 113381750.000000 70850000.000000" />
<path d="M99381750 57850000
L99381750 70840924
" />
<path d="M113381750.000000 57850000.000000 A500000.000000 500000.000000 0.0 0 0 112881750.000000 57350000.000000" />
<path d="M99881750.000000 57350000.000000 A500000.000000 500000.000000 0.0 0 0 99381750.000000 57850000.000000" />
<path d="M99881750 71340924
L112881750 71350000
" />
<path d="M99381750.000000 70840924.000000 A500000.000000 500000.000000 0.0 0 0 99881750.000000 71340924.000000" />
<path d="M99881750 57350000
L112881750 57350000
" />
<path d="M113381750 57850000
L113381750 70850000
" />
<path d="M227681750 57850000
L227681750 70850000
" />
<path d="M214181750 57350000
L227181750 57350000
" />
<path d="M213681750.000000 70840924.000000 A500000.000000 500000.000000 0.0 0 0 214181750.000000 71340924.000000" />
<path d="M214181750 71340924
L227181750 71350000
" />
<path d="M214181750.000000 57350000.000000 A500000.000000 500000.000000 0.0 0 0 213681750.000000 57850000.000000" />
<path d="M227681750.000000 57850000.000000 A500000.000000 500000.000000 0.0 0 0 227181750.000000 57350000.000000" />
<path d="M213681750 57850000
L213681750 70840924
" />
<path d="M227181750.000000 71350000.000000 A500000.000000 500000.000000 0.0 0 0 227681750.000000 70850000.000000" />
<path d="M189581750 57850000
L189581750 70850000
" />
<path d="M176081750 57350000
L189081750 57350000
" />
<path d="M175581750.000000 70840924.000000 A500000.000000 500000.000000 0.0 0 0 176081750.000000 71340924.000000" />
<path d="M176081750 71340924
L189081750 71350000
" />
<path d="M176081750.000000 57350000.000000 A500000.000000 500000.000000 0.0 0 0 175581750.000000 57850000.000000" />
<path d="M189581750.000000 57850000.000000 A500000.000000 500000.000000 0.0 0 0 189081750.000000 57350000.000000" />
<path d="M175581750 57850000
L175581750 70840924
" />
<path d="M189081750.000000 71350000.000000 A500000.000000 500000.000000 0.0 0 0 189581750.000000 70850000.000000" />
<path d="M132431750 57850000
L132431750 70850000
" />
<path d="M118931750 57350000
L131931750 57350000
" />
<path d="M118431750.000000 70840924.000000 A500000.000000 500000.000000 0.0 0 0 118931750.000000 71340924.000000" />
<path d="M118931750 71340924
L131931750 71350000
" />
<path d="M118931750.000000 57350000.000000 A500000.000000 500000.000000 0.0 0 0 118431750.000000 57850000.000000" />
<path d="M132431750.000000 57850000.000000 A500000.000000 500000.000000 0.0 0 0 131931750.000000 57350000.000000" />
<path d="M118431750 57850000
L118431750 70840924
" />
<path d="M131931750.000000 71350000.000000 A500000.000000 500000.000000 0.0 0 0 132431750.000000 70850000.000000" />
<path d="M75281750 57850000
L75281750 70850000
" />
<path d="M61781750 57350000
L74781750 57350000
" />
<path d="M61281750.000000 70840924.000000 A500000.000000 500000.000000 0.0 0 0 61781750.000000 71340924.000000" />
<path d="M61781750 71340924
L74781750 71350000
" />
<path d="M61781750.000000 57350000.000000 A500000.000000 500000.000000 0.0 0 0 61281750.000000 57850000.000000" />
<path d="M75281750.000000 57850000.000000 A500000.000000 500000.000000 0.0 0 0 74781750.000000 57350000.000000" />
<path d="M61281750 57850000
L61281750 70840924
" />
<path d="M74781750.000000 71350000.000000 A500000.000000 500000.000000 0.0 0 0 75281750.000000 70850000.000000" />
<path d="M208131750.000000 71350000.000000 A500000.000000 500000.000000 0.0 0 0 208631750.000000 70850000.000000" />
<path d="M194631750 57850000
L194631750 70840924
" />
<path d="M208631750.000000 57850000.000000 A500000.000000 500000.000000 0.0 0 0 208131750.000000 57350000.000000" />
<path d="M195131750.000000 57350000.000000 A500000.000000 500000.000000 0.0 0 0 194631750.000000 57850000.000000" />
<path d="M195131750 71340924
L208131750 71350000
" />
<path d="M194631750.000000 70840924.000000 A500000.000000 500000.000000 0.0 0 0 195131750.000000 71340924.000000" />
<path d="M195131750 57350000
L208131750 57350000
" />
<path d="M208631750 57850000
L208631750 70850000
" />
<path d="M170031750.000000 71350000.000000 A500000.000000 500000.000000 0.0 0 0 170531750.000000 70850000.000000" />
<path d="M156531750 57850000
L156531750 70840924
" />
<path d="M170531750.000000 57850000.000000 A500000.000000 500000.000000 0.0 0 0 170031750.000000 57350000.000000" />
<path d="M157031750.000000 57350000.000000 A500000.000000 500000.000000 0.0 0 0 156531750.000000 57850000.000000" />
<path d="M157031750 71340924
L170031750 71350000
" />
<path d="M156531750.000000 70840924.000000 A500000.000000 500000.000000 0.0 0 0 157031750.000000 71340924.000000" />
<path d="M157031750 57350000
L170031750 57350000
" />
<path d="M170531750 57850000
L170531750 70850000
" />
<path d="M150981750.000000 71350000.000000 A500000.000000 500000.000000 0.0 0 0 151481750.000000 70850000.000000" />
<path d="M137481750 57850000
L137481750 70840924
" />
<path d="M151481750.000000 57850000.000000 A500000.000000 500000.000000 0.0 0 0 150981750.000000 57350000.000000" />
<path d="M137981750.000000 57350000.000000 A500000.000000 500000.000000 0.0 0 0 137481750.000000 57850000.000000" />
<path d="M137981750 71340924
L150981750 71350000
" />
<path d="M137481750.000000 70840924.000000 A500000.000000 500000.000000 0.0 0 0 137981750.000000 71340924.000000" />
<path d="M137981750 57350000
L150981750 57350000
" />
<path d="M151481750 57850000
L151481750 70850000
" />
<path d="M55731750.000000 71350000.000000 A500000.000000 500000.000000 0.0 0 0 56231750.000000 70850000.000000" />
<path d="M42231750 57850000
L42231750 70840924
" />
<path d="M56231750.000000 57850000.000000 A500000.000000 500000.000000 0.0 0 0 55731750.000000 57350000.000000" />
<path d="M42731750.000000 57350000.000000 A500000.000000 500000.000000 0.0 0 0 42231750.000000 57850000.000000" />
<path d="M42731750 71340924
L55731750 71350000
" />
<path d="M42231750.000000 70840924.000000 A500000.000000 500000.000000 0.0 0 0 42731750.000000 71340924.000000" />
<path d="M42731750 57350000
L55731750 57350000
" />
<path d="M56231750 57850000
L56231750 70850000
" />
<path d="M246731750 57850000
L246731750 70850000
" />
<path d="M233231750 57350000
L246231750 57350000
" />
<path d="M232731750.000000 70840924.000000 A500000.000000 500000.000000 0.0 0 0 233231750.000000 71340924.000000" />
<path d="M233231750 71340924
L246231750 71350000
" />
<path d="M233231750.000000 57350000.000000 A500000.000000 500000.000000 0.0 0 0 232731750.000000 57850000.000000" />
<path d="M246731750.000000 57850000.000000 A500000.000000 500000.000000 0.0 0 0 246231750.000000 57350000.000000" />
<path d="M232731750 57850000
L232731750 70840924
" />
<path d="M246231750.000000 71350000.000000 A500000.000000 500000.000000 0.0 0 0 246731750.000000 70850000.000000" />
<path d="M94331750 57850000
L94331750 70850000
" />
<path d="M80831750 57350000
L93831750 57350000
" />
<path d="M80331750.000000 70840924.000000 A500000.000000 500000.000000 0.0 0 0 80831750.000000 71340924.000000" />
<path d="M80831750 71340924
L93831750 71350000
" />
<path d="M80831750.000000 57350000.000000 A500000.000000 500000.000000 0.0 0 0 80331750.000000 57850000.000000" />
<path d="M94331750.000000 57850000.000000 A500000.000000 500000.000000 0.0 0 0 93831750.000000 57350000.000000" />
<path d="M80331750 57850000
L80331750 70840924
" />
<path d="M93831750.000000 71350000.000000 A500000.000000 500000.000000 0.0 0 0 94331750.000000 70850000.000000" />
<path d="M32419250 57850000
L32419250 70850000
" />
<path d="M18919250 57350000
L31919250 57350000
" />
<path d="M18419250.000000 70840924.000000 A500000.000000 500000.000000 0.0 0 0 18919250.000000 71340924.000000" />
<path d="M18919250 71340924
L31919250 71350000
" />
<path d="M18919250.000000 57350000.000000 A500000.000000 500000.000000 0.0 0 0 18419250.000000 57850000.000000" />
<path d="M32419250.000000 57850000.000000 A500000.000000 500000.000000 0.0 0 0 31919250.000000 57350000.000000" />
<path d="M18419250 57850000
L18419250 70840924
" />
<path d="M31919250.000000 71350000.000000 A500000.000000 500000.000000 0.0 0 0 32419250.000000 70850000.000000" />
<path d="M255756750.000000 52300000.000000 A500000.000000 500000.000000 0.0 0 0 256256750.000000 51800000.000000" />
<path d="M242256750 38800000
L242256750 51790924
" />
<path d="M256256750.000000 38800000.000000 A500000.000000 500000.000000 0.0 0 0 255756750.000000 38300000.000000" />
<path d="M242756750.000000 38300000.000000 A500000.000000 500000.000000 0.0 0 0 242256750.000000 38800000.000000" />
<path d="M242756750 52290924
L255756750 52300000
" />
<path d="M242256750.000000 51790924.000000 A500000.000000 500000.000000 0.0 0 0 242756750.000000 52290924.000000" />
<path d="M242756750 38300000
L255756750 38300000
" />
<path d="M256256750 38800000
L256256750 51800000
" />
<path d="M237206750 38800000
L237206750 51800000
" />
<path d="M223706750 38300000
L236706750 38300000
" />
<path d="M223206750.000000 51790924.000000 A500000.000000 500000.000000 0.0 0 0 223706750.000000 52290924.000000" />
<path d="M223706750 52290924
L236706750 52300000
" />
<path d="M223706750.000000 38300000.000000 A500000.000000 500000.000000 0.0 0 0 223206750.000000 38800000.000000" />
<path d="M237206750.000000 38800000.000000 A500000.000000 500000.000000 0.0 0 0 236706750.000000 38300000.000000" />
<path d="M223206750 38800000
L223206750 51790924
" />
<path d="M236706750.000000 52300000.000000 A500000.000000 500000.000000 0.0 0 0 237206750.000000 51800000.000000" />
<path d="M180056750 38800000
L180056750 51800000
" />
<path d="M166556750 38300000
L179556750 38300000
" />
<path d="M166056750.000000 51790924.000000 A500000.000000 500000.000000 0.0 0 0 166556750.000000 52290924.000000" />
<path d="M166556750 52290924
L179556750 52300000
" />
<path d="M166556750.000000 38300000.000000 A500000.000000 500000.000000 0.0 0 0 166056750.000000 38800000.000000" />
<path d="M180056750.000000 38800000.000000 A500000.000000 500000.000000 0.0 0 0 179556750.000000 38300000.000000" />
<path d="M166056750 38800000
L166056750 51790924
" />
<path d="M179556750.000000 52300000.000000 A500000.000000 500000.000000 0.0 0 0 180056750.000000 51800000.000000" />
<path d="M217656750.000000 52300000.000000 A500000.000000 500000.000000 0.0 0 0 218156750.000000 51800000.000000" />
<path d="M204156750 38800000
L204156750 51790924
" />
<path d="M218156750.000000 38800000.000000 A500000.000000 500000.000000 0.0 0 0 217656750.000000 38300000.000000" />
<path d="M204656750.000000 38300000.000000 A500000.000000 500000.000000 0.0 0 0 204156750.000000 38800000.000000" />
<path d="M204656750 52290924
L217656750 52300000
" />
<path d="M204156750.000000 51790924.000000 A500000.000000 500000.000000 0.0 0 0 204656750.000000 52290924.000000" />
<path d="M204656750 38300000
L217656750 38300000
" />
<path d="M218156750 38800000
L218156750 51800000
" />
<path d="M198606750.000000 52300000.000000 A500000.000000 500000.000000 0.0 0 0 199106750.000000 51800000.000000" />
<path d="M185106750 38800000
L185106750 51790924
" />
<path d="M199106750.000000 38800000.000000 A500000.000000 500000.000000 0.0 0 0 198606750.000000 38300000.000000" />
<path d="M185606750.000000 38300000.000000 A500000.000000 500000.000000 0.0 0 0 185106750.000000 38800000.000000" />
<path d="M185606750 52290924
L198606750 52300000
" />
<path d="M185106750.000000 51790924.000000 A500000.000000 500000.000000 0.0 0 0 185606750.000000 52290924.000000" />
<path d="M185606750 38300000
L198606750 38300000
" />
<path d="M199106750 38800000
L199106750 51800000
" />
<path d="M160506750.000000 52300000.000000 A500000.000000 500000.000000 0.0 0 0 161006750.000000 51800000.000000" />
<path d="M147006750 38800000
L147006750 51790924
" />
<path d="M161006750.000000 38800000.000000 A500000.000000 500000.000000 0.0 0 0 160506750.000000 38300000.000000" />
<path d="M147506750.000000 38300000.000000 A500000.000000 500000.000000 0.0 0 0 147006750.000000 38800000.000000" />
<path d="M147506750 52290924
L160506750 52300000
" />
<path d="M147006750.000000 51790924.000000 A500000.000000 500000.000000 0.0 0 0 147506750.000000 52290924.000000" />
<path d="M147506750 38300000
L160506750 38300000
" />
<path d="M161006750 38800000
L161006750 51800000
" />
<path d="M122906750 38800000
L122906750 51800000
" />
<path d="M109406750 38300000
L122406750 38300000
" />
<path d="M108906750.000000 51790924.000000 A500000.000000 500000.000000 0.0 0 0 109406750.000000 52290924.000000" />
<path d="M109406750 52290924
L122406750 52300000
" />
<path d="M109406750.000000 38300000.000000 A500000.000000 500000.000000 0.0 0 0 108906750.000000 38800000.000000" />
<path d="M122906750.000000 38800000.000000 A500000.000000 500000.000000 0.0 0 0 122406750.000000 38300000.000000" />
<path d="M108906750 38800000
L108906750 51790924
" />
<path d="M122406750.000000 52300000.000000 A500000.000000 500000.000000 0.0 0 0 122906750.000000 51800000.000000" />
<path d="M103356750.000000 52300000.000000 A500000.000000 500000.000000 0.0 0 0 103856750.000000 51800000.000000" />
<path d="M89856750 38800000
L89856750 51790924
" />
<path d="M103856750.000000 38800000.000000 A500000.000000 500000.000000 0.0 0 0 103356750.000000 38300000.000000" />
<path d="M90356750.000000 38300000.000000 A500000.000000 500000.000000 0.0 0 0 89856750.000000 38800000.000000" />
<path d="M90356750 52290924
L103356750 52300000
" />
<path d="M89856750.000000 51790924.000000 A500000.000000 500000.000000 0.0 0 0 90356750.000000 52290924.000000" />
<path d="M90356750 38300000
L103356750 38300000
" />
<path d="M103856750 38800000
L103856750 51800000
" />
<path d="M141956750 38800000
L141956750 51800000
" />
<path d="M128456750 38300000
L141456750 38300000
" />
<path d="M127956750.000000 51790924.000000 A500000.000000 500000.000000 0.0 0 0 128456750.000000 52290924.000000" />
<path d="M128456750 52290924
L141456750 52300000
" />
<path d="M128456750.000000 38300000.000000 A500000.000000 500000.000000 0.0 0 0 127956750.000000 38800000.000000" />
<path d="M141956750.000000 38800000.000000 A500000.000000 500000.000000 0.0 0 0 141456750.000000 38300000.000000" />
<path d="M127956750 38800000
L127956750 51790924
" />
<path d="M141456750.000000 52300000.000000 A500000.000000 500000.000000 0.0 0 0 141956750.000000 51800000.000000" />
<path d="M84806750 38800000
L84806750 51800000
" />
<path d="M71306750 38300000
L84306750 38300000
" />
<path d="M70806750.000000 51790924.000000 A500000.000000 500000.000000 0.0 0 0 71306750.000000 52290924.000000" />
<path d="M71306750 52290924
L84306750 52300000
" />
<path d="M71306750.000000 38300000.000000 A500000.000000 500000.000000 0.0 0 0 70806750.000000 38800000.000000" />
<path d="M84806750.000000 38800000.000000 A500000.000000 500000.000000 0.0 0 0 84306750.000000 38300000.000000" />
<path d="M70806750 38800000
L70806750 51790924
" />
<path d="M84306750.000000 52300000.000000 A500000.000000 500000.000000 0.0 0 0 84806750.000000 51800000.000000" />
<path d="M65256750.000000 52300000.000000 A500000.000000 500000.000000 0.0 0 0 65756750.000000 51800000.000000" />
<path d="M51756750 38800000
L51756750 51790924
" />
<path d="M65756750.000000 38800000.000000 A500000.000000 500000.000000 0.0 0 0 65256750.000000 38300000.000000" />
<path d="M52256750.000000 38300000.000000 A500000.000000 500000.000000 0.0 0 0 51756750.000000 38800000.000000" />
<path d="M52256750 52290924
L65256750 52300000
" />
<path d="M51756750.000000 51790924.000000 A500000.000000 500000.000000 0.0 0 0 52256750.000000 52290924.000000" />
<path d="M52256750 38300000
L65256750 38300000
" />
<path d="M65756750 38800000
L65756750 51800000
" />
<path d="M46206750.000000 52300000.000000 A500000.000000 500000.000000 0.0 0 0 46706750.000000 51800000.000000" />
<path d="M32706750 38800000
L32706750 51790924
" />
<path d="M46706750.000000 38800000.000000 A500000.000000 500000.000000 0.0 0 0 46206750.000000 38300000.000000" />
<path d="M33206750.000000 38300000.000000 A500000.000000 500000.000000 0.0 0 0 32706750.000000 38800000.000000" />
<path d="M33206750 52290924
L46206750 52300000
" />
<path d="M32706750.000000 51790924.000000 A500000.000000 500000.000000 0.0 0 0 33206750.000000 52290924.000000" />
<path d="M33206750 38300000
L46206750 38300000
" />
<path d="M46706750 38800000
L46706750 51800000
" />
<path d="M27656750 38800000
L27656750 51800000
" />
<path d="M14156750 38300000
L27156750 38300000
" />
<path d="M13656750.000000 51790924.000000 A500000.000000 500000.000000 0.0 0 0 14156750.000000 52290924.000000" />
<path d="M14156750 52290924
L27156750 52300000
" />
<path d="M14156750.000000 38300000.000000 A500000.000000 500000.000000 0.0 0 0 13656750.000000 38800000.000000" />
<path d="M27656750.000000 38800000.000000 A500000.000000 500000.000000 0.0 0 0 27156750.000000 38300000.000000" />
<path d="M13656750 38800000
L13656750 51790924
" />
<path d="M27156750.000000 52300000.000000 A500000.000000 500000.000000 0.0 0 0 27656750.000000 51800000.000000" />
<g >
</g>
<g >
</g>
<g >
</g>
<g >
</g>
<g >
</g>
<g >
</g>
<g >
</g>
<g >
</g>
<g >
</g>
<g >
</g>
<g >
</g>
<g >
</g>
<g >
</g>
<g >
</g>
<g >
</g>
<g >
</g>
<g >
</g>
<g >
</g>
<g >
</g>
<g >
</g>
<g >
</g>
<g >
</g>
<g >
</g>
<g >
</g>
<g >
</g>
<g >
</g>
<g >
</g>
<g >
</g>
<g >
</g>
<g >
</g>
<g >
</g>
<g >
</g>
<g >
</g>
<g >
</g>
<g >
</g>
<g >
</g>
<g >
</g>
<g >
</g>
<g >
</g>
<g >
</g>
<g >
</g>
<g >
</g>
<g >
</g>
<g >
</g>
<g >
</g>
<g >
</g>
<g >
</g>
<g >
</g>
<g >
</g>
<g >
</g>
<g >
</g>
<g >
</g>
<g >
</g>
<g >
</g>
</g> 
</svg>
